<?xml version="1.0" encoding="utf-8"?>
<!-- Generator: Adobe Illustrator 23.0.6, SVG Export Plug-In . SVG Version: 6.00 Build 0)  -->
<svg version="1.1" id="Layer_1" xmlns="http://www.w3.org/2000/svg" xmlns:xlink="http://www.w3.org/1999/xlink" x="0px" y="0px"
	 viewBox="0 0 2048 2048" style="enable-background:new 0 0 2048 2048;" xml:space="preserve">
<style type="text/css">
	.st0{fill:#FFFFFF;stroke:#1F1F1F;stroke-width:14;stroke-miterlimit:10;}
	.st1{fill:#1F1F1F;}
	.st2{fill:#FFFFFF;}
</style>
<path class="st0" d="M315.1,234.1c137.3,2.5,283.4,0.6,437.4-7.5c190.6-10,368.6-28.2,532.6-51.2c13.2-0.8,32.7-0.5,55.4,5.6
	c17.9,4.8,35.1,12.4,50.8,22.8c51.6,44.3,113,91.7,184.9,138.1c61.4,39.6,120.2,71.9,174.1,98.2c7.9,5.2,23.6,17,35,38.2
	c5.2,9.6,8.9,20,10.9,30.8c0,0,1.8,9.6,1.8,19.5c0,37.2-34.3,393-30.2,557.8c3.4,136.9,39.4,393.2,30.2,495.2
	c-1.9,21-7.7,57.5-33.7,85.2c-13.1,14-29.4,25-47.8,31.8c-16.3,6-29.9,7.1-35,7.4c-177,12-442.2,14-442.2,14
	c-188.2,1.4-422.9,46.9-559.6,51.6c-14.6,0.5-57.7,1.5-102-17.9c-31.6-13.9-60-35.3-82.3-62.9c-22.1-45.3-55.5-101.9-105.7-159.4
	c-33.7-38.6-67.5-69.1-97.6-92.8c-9.6-12-22.9-31.3-32.4-58c-7.4-20.9-11.2-43-11.2-65.5c17.8-140.9,30.3-299.1,31.7-472
	c1.6-199.4-11.7-380.1-31.7-538.1c0-0.4,0-0.9,0-1.6c0.4-10.1,1.5-39.6,20.1-56.5C285.4,231.6,308.8,233.4,315.1,234.1z"/>
<path class="st1" d="M1624.5,1602.3c-119,88.8-230,24.9-451.5,29.7c-275,6-390.8,110.6-531,19.3c-43.7-28.5-68.3-62-75.5-72.3
	c-83.2-118.6-8.3-220.1-6.9-456.7c1.4-241.5-75.5-356.9,12.5-462c30.9-36.9,75.3-57.9,75.3-57.9c55.3-28.8,106.4-30.8,128.2-31.7
	c369.4-14.9,554.1-22.4,558.7-23c123.3-18.1,214.6-49.9,295.4,6.5c7.1,4.9,31.2,22.5,53.9,56.9c78.6,119.4,0.2,231.3-2.2,440.6
	c-2.8,240,97.3,344.8,11.5,478.1C1686.6,1539.6,1664.4,1572.6,1624.5,1602.3z"/>
<path class="st1" d="M1531.4,431.3c-38,7.1-93.1,16.7-159.7,25.7c-236.4,32-265.4,9-519.8,30.2c-154.3,12.9-211.2,26.9-298.1-5.6
	c-57.9-21.7-152.6-73.3-147.6-120.1c0.8-7.4,4.8-19.1,23.8-32.3c103.4,7.6,186.5,5.4,240.5,2.5c249-13.6,376.1-20.5,524.2-66.2
	c44.1-13.6,100.6-34,157.4-10.2c50.8,21.3,52,46.3,122.5,93c37.2,24.7,63,28.3,66.6,50.6C1543.3,411.5,1537,423.3,1531.4,431.3z"/>
<path class="st2" d="M804.5,656.5c22.7-20,50.3-17.9,105.8-25.9c93.5-13.4,412.8-59.3,511.9,103.7c46.9,77.1,42.3,196.3-13,248.4
	c-50.6,47.7-138.2,34.1-138.8,50.4c-0.6,17.6,102.4,12,166.9,83.5c33.3,37,42.1,78.9,45.4,95c21.5,108.3-49.9,199.8-69.1,222.5
	c-100.7,118.7-264.3,117.7-344.9,117.2c-99.4-0.6-202.9-1.3-259.9-69.7c-70.4-84.6,24.1-171.3,6.5-419
	C800.2,850.2,734.1,718.6,804.5,656.5z"/>
<path class="st1" d="M995.8,1157.3c-12.1,15.3-14.2,55.5-18.3,135.9c-3.6,70.8-5.2,106.4,4.3,118.8c53.8,69.8,322.5,16,356.3-112.2
	c7.8-29.6,0.7-54.2-3.1-64.8C1292.8,1119.5,1055.2,1082.6,995.8,1157.3z"/>
<path class="st1" d="M978.7,731c-30.4,35.7-25.9,86.6-22.8,123.7c4.5,52.1,26.1,91.4,31.1,100.4c2.4,4.2,3.5,6.4,4.6,7.7
	c45.9,54,297,8.5,329.3-104.3c7.7-26.9-0.5-50-3.1-57.9c-30.3-89.7-171.1-102.9-192.3-104.6C1082.5,692.7,1015.8,687.5,978.7,731z"
	/>
<path class="st2" d="M1138.5,709"/>
<image style="overflow:visible;" width="73" height="101" xlink:href="11BF9142.jpg"  transform="matrix(7.1799 0 0 7.1799 2287.98 -362.5833)">
</image>
</svg>
